<?xml version="1.0" encoding="UTF-8" standalone="no"?>
<svg
   xmlns:dc="http://purl.org/dc/elements/1.1/"
   xmlns:cc="http://creativecommons.org/ns#"
   xmlns:rdf="http://www.w3.org/1999/02/22-rdf-syntax-ns#"
   xmlns:svg="http://www.w3.org/2000/svg"
   xmlns="http://www.w3.org/2000/svg"
   xmlns:sodipodi="http://sodipodi.sourceforge.net/DTD/sodipodi-0.dtd"
   xmlns:inkscape="http://www.inkscape.org/namespaces/inkscape"
   width="24"
   height="24"
   viewBox="0 0 24 24"
   version="1.1"
   id="svg6"
   sodipodi:docname="appicon.svg"
   inkscape:version="0.92.4 5da689c313, 2019-01-14"
   inkscape:export-filename="/home/jaden/Projects/cloudfrogdev/public/img/appicon.png"
   inkscape:export-xdpi="496"
   inkscape:export-ydpi="496">
  <metadata
     id="metadata12">
    <rdf:RDF>
      <cc:Work
         rdf:about="">
        <dc:format>image/svg+xml</dc:format>
        <dc:type
           rdf:resource="http://purl.org/dc/dcmitype/StillImage" />
      </cc:Work>
    </rdf:RDF>
  </metadata>
  <defs
     id="defs10" />
  <sodipodi:namedview
     pagecolor="#ffffff"
     bordercolor="#666666"
     borderopacity="1"
     objecttolerance="10"
     gridtolerance="10"
     guidetolerance="10"
     inkscape:pageopacity="0"
     inkscape:pageshadow="2"
     inkscape:window-width="1680"
     inkscape:window-height="1022"
     id="namedview8"
     showgrid="false"
     inkscape:zoom="19.666667"
     inkscape:cx="6.0735573"
     inkscape:cy="10.923836"
     inkscape:window-x="2560"
     inkscape:window-y="289"
     inkscape:window-maximized="1"
     inkscape:current-layer="svg6" />
  <rect
     style="fill:#1e3e94;fill-opacity:1;stroke:none;stroke-width:1.37952757;stroke-miterlimit:4;stroke-dasharray:none"
     id="rect816"
     width="24"
     height="24"
     x="0"
     y="0" />
  <path
     fill="none"
     d="M0 0h24v24H0V0z"
     id="path2" />
  <path
     d="m 4.4519774,12.943503 h 5.6610166 c 0.518927,0 0.943503,-0.424576 0.943503,-0.943503 V 4.4519774 c 0,-0.5189266 -0.424576,-0.9435028 -0.943503,-0.9435028 H 4.4519774 c -0.5189266,0 -0.9435028,0.4245762 -0.9435028,0.9435028 V 12 c 0,0.518927 0.4245762,0.943503 0.9435028,0.943503 z m 0,7.548022 h 5.6610166 c 0.518927,0 0.943503,-0.424576 0.943503,-0.943502 v -3.774012 c 0,-0.518926 -0.424576,-0.943503 -0.943503,-0.943503 H 4.4519774 c -0.5189266,0 -0.9435028,0.424577 -0.9435028,0.943503 v 3.774012 c 0,0.518926 0.4245762,0.943502 0.9435028,0.943502 z m 9.4350286,0 h 5.661017 c 0.518926,0 0.943502,-0.424576 0.943502,-0.943502 V 12 c 0,-0.518927 -0.424576,-0.943503 -0.943502,-0.943503 h -5.661017 c -0.518927,0 -0.943503,0.424576 -0.943503,0.943503 v 7.548023 c 0,0.518926 0.424576,0.943502 0.943503,0.943502 z M 12.943503,4.4519774 v 3.7740113 c 0,0.5189266 0.424576,0.9435028 0.943503,0.9435028 h 5.661017 c 0.518926,0 0.943502,-0.4245762 0.943502,-0.9435028 V 4.4519774 c 0,-0.5189266 -0.424576,-0.9435028 -0.943502,-0.9435028 h -5.661017 c -0.518927,0 -0.943503,0.4245762 -0.943503,0.9435028 z"
     id="path4"
     style="fill:#ffffff;fill-opacity:1;stroke-width:0.94350284"
     inkscape:connector-curvature="0" />
</svg>
