<?xml version="1.0" encoding="UTF-8" standalone="no"?>
<!-- Created with Inkscape (http://www.inkscape.org/) -->

<svg
   xmlns:dc="http://purl.org/dc/elements/1.1/"
   xmlns:cc="http://creativecommons.org/ns#"
   xmlns:rdf="http://www.w3.org/1999/02/22-rdf-syntax-ns#"
   xmlns:svg="http://www.w3.org/2000/svg"
   xmlns="http://www.w3.org/2000/svg"
   xmlns:sodipodi="http://sodipodi.sourceforge.net/DTD/sodipodi-0.dtd"
   xmlns:inkscape="http://www.inkscape.org/namespaces/inkscape"
   width="126.34379mm"
   height="67.7948mm"
   viewBox="0 0 126.34379 67.7948"
   version="1.1"
   id="svg6752"
   sodipodi:docname="cfblue.svg"
   inkscape:export-filename="/home/jaden/Pictures/cfblack.png"
   inkscape:export-xdpi="96"
   inkscape:export-ydpi="96"
   inkscape:version="0.92.4 5da689c313, 2019-01-14">
  <defs
     id="defs6746" />
  <sodipodi:namedview
     id="base"
     pagecolor="#ffffff"
     bordercolor="#666666"
     borderopacity="1.0"
     inkscape:pageopacity="0.0"
     inkscape:pageshadow="2"
     inkscape:zoom="0.49497475"
     inkscape:cx="670.16187"
     inkscape:cy="-95.792575"
     inkscape:document-units="mm"
     inkscape:current-layer="layer1"
     showgrid="false"
     inkscape:window-width="1680"
     inkscape:window-height="1022"
     inkscape:window-x="2560"
     inkscape:window-y="289"
     inkscape:window-maximized="1"
     fit-margin-top="0"
     fit-margin-left="0"
     fit-margin-right="0"
     fit-margin-bottom="0"
     showguides="false" />
  <metadata
     id="metadata6749">
    <rdf:RDF>
      <cc:Work
         rdf:about="">
        <dc:format>image/svg+xml</dc:format>
        <dc:type
           rdf:resource="http://purl.org/dc/dcmitype/StillImage" />
        <dc:title />
      </cc:Work>
    </rdf:RDF>
  </metadata>
  <g
     inkscape:label="Layer 1"
     inkscape:groupmode="layer"
     id="layer1"
     transform="translate(-50.919849,-42.36011)">
    <path
       style="fill:#1e3e94;fill-opacity:1;stroke:#000000;stroke-width:0.27415344px;stroke-linecap:butt;stroke-linejoin:miter;stroke-opacity:1"
       d="m 518.2793,160.23828 c -9.55432,0 -22.91693,2.97648 -38.14844,14.88477 -30.46307,23.81657 -27.69336,61.75781 -27.69336,61.75781 0,0 -9.96152,2.05212 -19.67773,7.31445 14.28418,1.08682 30.415,6.7032 44.42773,-0.56836 13.91074,0.6782 20.47519,-13.07961 33.19727,-14.25781 v 0.002 c 2.24685,-0.0422 4.50062,0.32691 6.59765,1.14258 12.51564,6.19902 16.78032,21.86157 31.8457,24.75195 18.27069,15.9857 6.66631,43.88509 -13.45703,51.76954 -6.06815,4.02593 -22.63027,7.13589 -22.57421,13.75781 h 97.77148 c 0,0 58.98859,3.59969 59.26562,-41.54102 0.27697,-45.14069 -32.40234,-48.74023 -32.40234,-48.74023 0,0 7.1e-4,-18.83195 -20.76953,-30.74024 -18.62322,-10.6773 -30.70707,0.6048 -33.02344,3.06836 0.27086,-1.19263 -1.01173,-5.10748 -12.94922,-18.02343 -16.89312,-18.27783 -37.10937,-21.60157 -37.10937,-21.60157 0,0 -5.74646,-2.97656 -15.30078,-2.97656 z"
       transform="scale(0.26458333)"
       id="path6790"
       inkscape:connector-curvature="0" />
    <path
       style="fill:#1e3e94;fill-opacity:1;stroke:#000000;stroke-width:0.27415344px;stroke-linecap:butt;stroke-linejoin:miter;stroke-opacity:1"
       d="m 344.14648,195.24023 c -9.55432,0 -15.30078,2.97657 -15.30078,2.97657 0,0 -20.21819,3.32373 -37.11132,21.60156 -11.93805,12.91657 -13.21829,16.831 -12.94727,18.02344 -2.31636,-2.46356 -14.40022,-13.74567 -33.02344,-3.06836 -20.77024,11.90828 -20.76953,30.74023 -20.76953,30.74023 0,0 -32.67928,3.59954 -32.40234,48.74024 0.27692,45.1407 59.26367,41.54101 59.26367,41.54101 h 49.63281 c -2.01076,-3.88425 -3.37367,-8.09591 -3.84375,-12.70703 -0.69984,-10.82285 12.70642,-15.41386 17.34766,-18.39453 -9.75851,-2.85631 -23.16424,-15.53796 -14.45313,-27.71289 27.23679,-23.05439 53.05309,-52.55041 88.65625,-62.56836 3.09676,-1.53888 6.8736,-2.83985 10.81446,-3.62305 -4.06535,-7.23305 -9.7459,-14.43227 -17.7168,-20.66406 -15.23151,-11.90828 -28.59217,-14.88477 -38.14649,-14.88477 z"
       transform="scale(0.26458333)"
       id="path6782"
       inkscape:connector-curvature="0" />
    <path
       style="fill:#1e3e94;stroke-width:0.13784486;fill-opacity:1"
       d="m 109.01765,109.91852 c -0.44001,-0.30754 -0.75046,-0.55632 -1.36766,-1.09597 -0.27563,-0.241 -0.68462,-0.48192 -0.90884,-0.53536 -0.75365,-0.17965 -2.05676,-0.77453 -2.69399,-1.22982 -0.3477,-0.24843 -0.78191,-0.49648 -0.96492,-0.55122 -0.18301,-0.0547 -0.5261,-0.21027 -0.76242,-0.34561 -0.23633,-0.13535 -0.76358,-0.28838 -1.17168,-0.34007 -1.809862,-0.22925 -3.905668,-1.00511 -5.541197,-2.05135 -0.432332,-0.27655 -1.297237,-0.75881 -1.92201,-1.07169 -4.293937,-2.15032 -8.623598,-5.12903 -10.118279,-6.961144 -0.290931,-0.35662 -0.950667,-1.14396 -1.46608,-1.74964 -0.515412,-0.60569 -1.033471,-1.32469 -1.151243,-1.59779 -0.648108,-1.50291 0.16158,-3.395 1.657604,-3.87351 0.53092,-0.16981 2.320119,-0.12464 3.166338,0.0799 l 0.392223,0.0948 -0.232993,-0.45056 c -0.128147,-0.24781 -0.2882,-0.798936 -0.355675,-1.224724 -0.06748,-0.425794 -0.186921,-1.084317 -0.265438,-1.463394 -0.129263,-0.624071 -0.107123,-1.060107 0.08924,-1.757518 0.06046,-0.214741 -0.04866,-0.241233 -0.993674,-0.241233 -1.391393,0 -2.06088,-0.216122 -2.763849,-0.892219 -0.731991,-0.704012 -0.956837,-1.436891 -0.724237,-2.36063 0.203728,-0.809079 0.842678,-1.469088 2.582989,-2.668122 0.710182,-0.489302 1.91977,-1.503916 2.687974,-2.254697 1.679709,-1.641619 4.878934,-4.345736 7.16877,-6.059335 2.500365,-1.871151 4.364354,-3.054951 6.358311,-4.038098 1.501976,-0.740569 2.104296,-0.953158 3.721806,-1.313604 1.06141,-0.236518 2.32016,-0.576745 2.79723,-0.756058 1.73093,-0.650595 2.9996,-0.560959 3.83126,0.270695 0.77568,0.775683 0.86227,1.889046 0.21173,2.722128 -0.14007,0.179355 -0.30099,0.473844 -0.3576,0.654418 -0.0973,0.310432 -0.0777,0.323805 0.36012,0.245459 2.68625,-0.480695 6.28105,-0.5168 7.90666,-0.07941 3.01091,0.810111 4.24898,0.745409 7.85716,-0.410618 0.98558,-0.315771 2.53031,-0.761747 3.43272,-0.991055 2.01121,-0.511058 2.16766,-0.591405 3.11491,-1.599757 0.9089,-0.967533 1.61444,-1.33707 2.55013,-1.335669 1.35089,0.0021 2.54557,1.011765 3.82408,3.232114 0.19951,0.346483 0.59928,0.788427 0.88839,0.982093 1.01437,0.679531 3.14976,1.866176 3.65057,2.028646 0.27824,0.09027 0.5689,0.240025 0.64589,0.332803 0.23358,0.281448 1.26051,2.347376 1.26051,2.535837 0,0.09687 0.062,0.176115 0.13784,0.176115 0.0811,0 0.13784,0.482462 0.13784,1.171682 0,0.689227 -0.0568,1.171682 -0.13784,1.171682 -0.0759,0 -0.13845,0.108554 -0.13919,0.241229 -0.005,0.996927 -2.41897,3.78932 -3.93036,4.547562 -0.45317,0.227348 -0.97902,0.459126 -1.16856,0.515065 -0.61522,0.181564 -4.66221,2.244944 -5.26874,2.686288 -1.4915,1.085319 -2.48124,1.671805 -3.18915,1.889792 l -0.76808,0.236508 1.06348,0.514101 c 1.1962,0.578255 1.47069,0.787557 2.03884,1.554619 0.56177,0.758444 1.06972,0.935679 2.37071,0.827178 l 1.06614,-0.08891 0.75756,0.587827 c 0.9325,0.72356 1.23299,1.08054 1.23695,1.46953 0.008,0.77155 -1.04887,0.99048 -1.7862,0.37005 -0.47659,-0.40104 -1.34725,-0.87712 -1.60403,-0.87712 -0.0905,0 -0.42444,0.2171 -0.74204,0.48245 -0.31761,0.26536 -0.62497,0.48246 -0.68303,0.48246 -0.0581,0 -0.3386,-0.15814 -0.62342,-0.35142 -0.28482,-0.19329 -0.55237,-0.31692 -0.59456,-0.27473 -0.0422,0.0422 0.12092,0.33989 0.36245,0.66158 0.24153,0.32168 0.76399,1.11213 1.16102,1.75655 0.39703,0.64443 1.07862,1.51746 1.51463,1.94009 0.436,0.42262 0.79274,0.8422 0.79274,0.9324 0,0.0902 0.27311,0.49931 0.60691,0.90912 0.33381,0.40983 0.6479,0.931684 0.69797,1.159684 0.33376,1.51958 -2.06323,2.07396 -2.74602,0.63509 -0.12123,-0.25548 -0.213,-0.8186 -0.213,-1.307074 v -0.85815 l -1.55615,-1.53607 c -1.20989,-1.19428 -1.6623,-1.74771 -2.03321,-2.48724 -0.96175,-1.91753 -2.33021,-2.25311 -3.76319,-0.9228 -0.54721,0.508 -0.82007,1.08638 -0.85423,1.81071 -0.0559,1.18615 -0.2264,1.79135 -0.58375,2.07244 -0.64953,0.51092 -2.11358,0.2465 -2.58047,-0.46605 -0.20771,-0.317 -0.20846,-0.37475 -0.009,-0.67949 0.12002,-0.18317 0.3693,-0.40187 0.55394,-0.486 0.22013,-0.1003 0.38591,-0.33938 0.48151,-0.69441 0.0802,-0.2978 0.24313,-0.62223 0.36211,-0.72098 0.24477,-0.20314 0.17302,-0.88329 -0.16139,-1.52997 -0.10734,-0.20757 -0.24293,-0.70595 -0.30132,-1.10753 l -0.10617,-0.730129 -1.0343,0.976829 c -1.83437,1.73246 -3.8194,2.98912 -5.64519,3.57382 -2.54168,0.81395 -2.55816,1.23072 -0.17253,4.365634 1.15113,1.51266 2.12649,3.31427 2.35722,4.35407 0.0718,0.32374 0.23405,0.74647 0.36046,0.93941 0.19487,0.29741 0.2958,0.3363 0.66329,0.25559 1.3969,-0.30681 2.53782,-1.12476 3.03574,-2.1764 0.19302,-0.40766 0.43706,-0.77425 0.5423,-0.81463 0.10526,-0.0404 0.26753,-0.32765 0.36062,-0.63837 0.21097,-0.70413 0.77792,-1.04423 1.56481,-0.93869 1.49472,0.20049 1.9636,1.50567 0.76737,2.13608 -0.24509,0.12916 -0.72032,0.52948 -1.05606,0.88961 -0.33574,0.36011 -0.69149,0.65476 -0.79055,0.65476 -0.25446,0 -1.29181,1.41354 -1.29181,1.76027 0,0.44583 1.04995,0.58867 3.85965,0.52506 2.51234,-0.0568 2.8078,-0.11045 4.60616,-0.83545 0.73693,-0.29709 1.03411,-0.35568 1.30953,-0.25818 0.24667,0.0873 0.52837,0.0645 0.9158,-0.0742 0.51268,-0.1836 0.60487,-0.17817 1.10094,0.0648 0.89476,0.43821 1.51723,1.74419 0.99303,2.08346 -0.0948,0.0614 -0.94769,0.11195 -1.89537,0.1125 -1.55459,7.6e-4 -1.90649,0.0508 -3.59908,0.51043 -1.03181,0.28021 -2.5414,0.58849 -3.35463,0.68509 -1.6533,0.19637 -1.89438,0.3565 -1.56446,1.03915 0.27321,0.56535 1.00119,0.92525 1.78743,0.88368 1.18719,-0.0627 1.68118,-0.0608 2.76491,0.011 1.03462,0.0685 1.48462,0.24513 1.48462,0.58255 0,0.31098 -0.79118,0.92109 -1.45263,1.12015 -0.58194,0.17514 -0.78575,0.17418 -1.66704,-0.008 -1.3137,-0.27135 -1.45808,-0.26386 -1.92018,0.0996 -0.55755,0.43856 -1.25794,0.40277 -2.00503,-0.10246 -0.91671,-0.61994 -1.35961,-0.7836 -2.19707,-0.81181 -0.5918,-0.02 -0.97433,-0.14111 -1.69335,-0.53633 -0.51086,-0.28081 -1.04085,-0.51056 -1.17774,-0.51056 -0.25792,0 -2.10877,-0.45542 -2.53297,-0.62327 -0.20317,-0.0804 -0.24123,-0.0159 -0.24123,0.4086 0,0.93187 -0.75467,1.86881 -1.50526,1.86881 -0.3173,0 -1.19738,-0.2633 -2.69901,-0.80745 -1.59218,-0.57699 -3.1015,-0.85486 -3.1015,-0.571 0,0.0759 0.0633,0.13785 0.1408,0.13785 0.0774,0 0.20801,0.14749 0.29014,0.32777 0.18969,0.41631 -0.14357,1.17603 -0.73367,1.67258 -0.48828,0.41086 -1.26498,0.45688 -1.76873,0.10479 z m 7.54143,-3.76467 0.41084,-0.14322 -0.44994,-0.47708 c -0.24747,-0.26239 -0.49227,-0.47707 -0.544,-0.47707 -0.0517,0 -0.25749,-0.1573 -0.45725,-0.34956 -0.19975,-0.19226 -0.66154,-0.60677 -1.02619,-0.92113 -0.80422,-0.69334 -1.58808,-2.23091 -2.0226,-3.96741 -0.16126,-0.64443 -0.38851,-1.48441 -0.50502,-1.86662 -0.11649,-0.38222 -0.19323,-0.95236 -0.17051,-1.26697 0.0289,-0.4008 -0.0327,-0.653794 -0.20583,-0.845124 -0.13593,-0.15019 -0.27895,-0.51051 -0.31782,-0.8007 -0.0657,-0.49031 -0.1014,-0.52628 -0.50523,-0.5087 -0.23901,0.0105 -0.52761,0.0543 -0.64133,0.0975 -0.11372,0.0432 -0.36184,0.0777 -0.55138,0.0767 -0.18954,-7.7e-4 -1.24358,0.0268 -2.34232,0.0618 -1.12113,0.0357 -2.10402,0.007 -2.23998,-0.066 -0.13325,-0.0713 -0.24227,-0.10428 -0.24227,-0.0732 0,0.10111 2.05384,3.578574 2.1997,3.724434 0.0972,0.0972 0.26137,0.0304 0.52183,-0.21259 0.73576,-0.68628 1.47265,-0.86096 1.88643,-0.44719 0.52446,0.52447 0.0896,1.49112 -0.89733,1.99461 -0.81172,0.41411 -1.38365,1.81911 -0.98608,2.42242 0.0884,0.13418 1.85613,0.76952 4.12468,1.48248 0.39331,0.12361 1.03194,0.22474 1.41917,0.22474 1.18841,0 1.74918,0.87287 1.09504,1.70447 -0.15713,0.19977 -0.26567,0.3671 -0.24122,0.37186 0.0244,0.005 0.50969,0.09 1.0783,0.18941 0.56861,0.0994 1.0711,0.18857 1.11664,0.19812 0.0456,0.01 0.2677,-0.0471 0.49367,-0.12587 z"
       id="path6765"
       inkscape:connector-curvature="0" />
  </g>
</svg>
